<svg baseProfile="basic" xmlns="http://www.w3.org/2000/svg" width="28.838" height="42.994" viewBox="0 0 28.838 42.994"><g fill-rule="evenodd" clip-rule="evenodd" fill="#FFF"><path d="M25.67 23.064c-.595.88-1.588 2.813-2.57 4.72-.631 1.227-1.251 2.43-1.813 3.421l-1.252-.025c.53-1.021 1.158-2.323 1.787-3.653.947-2.006 1.913-4.045 2.537-5.047 1.278-2.015 1.938-3.996 2.07-5.849a9.539 9.539 0 0 0-1.363-5.657c-.87-1.415-2.081-2.67-3.536-3.679a15.351 15.351 0 0 0-5.209-2.306c-1.946-.457-3.93-.505-5.765-.163-1.851.342-3.498 1.12-4.76 2.283-1.577 1.447-2.494 3.474-2.51 5.98-.014 2.251.711 4.805 2.271 7.51.749 1.289 1.787 3.786 2.775 6.167.634 1.548 1.248 3.043 1.765 4.182-.512-.008-1.018-.024-1.523-.036-.588-1.142-1.249-2.55-1.935-4.023-1.101-2.331-2.26-4.774-3.008-5.956C1.593 17.735.565 14.636.467 11.81c-.112-3.182.966-5.857 2.921-7.802C4.942 2.443 6.971 1.427 9.267.961c2.296-.465 4.763-.333 7.152.305a18.012 18.012 0 0 1 6.333 3.107c1.736 1.342 3.153 2.972 4.132 4.786 1.172 2.189 1.692 4.597 1.425 7.092-.236 2.217-1.086 4.515-2.639 6.813zM17.605 32.062c-1.451.371-2.881.743-4.279 1.1-1.384.353-2.747.702-4.086 1.042-.211-.738-.437-1.528-.674-2.385 1.583.042 3.139.085 4.661.124 1.487.039 2.952.08 4.378.119zm-4.216 8.344c.928-.197 1.864-.393 2.811-.597.952-.205 1.923-.414 2.9-.618-.101.365-.2.715-.29 1.043-.875.022-1.763.053-2.658.081-.911.027-1.831.061-2.763.091zm-2.689-1.02c.107.387.211.749.307 1.091 1.32-.276 2.659-.566 4.016-.859 1.381-.299 2.788-.599 4.208-.912.121-.413.239-.846.369-1.304-1.547.347-3.067.685-4.56 1.018-1.473.327-2.92.645-4.34.966zm-.532-1.894c1.6-.373 3.231-.753 4.888-1.143l5.168-1.216c-.162.582-.316 1.145-.462 1.659-1.598.371-3.173.73-4.722 1.076-1.52.34-3.017.68-4.483 1.011-.122-.435-.254-.898-.389-1.387zm-.69-2.435c.18.634.347 1.233.508 1.795 1.658-.4 3.357-.802 5.078-1.212 1.754-.418 3.551-.857 5.38-1.299l.612-2.184c-2.04.512-4.039 1.005-5.981 1.492-1.905.478-3.771.955-5.597 1.408z"/><path d="M11.538 18.064l9.472-3.254-5.143 14.098 2.224-11.461z"/><path d="M15.776 20.353l-6.32-2.48 3.432 10.746-1.484-8.737zM14.884 41.167h-2.106c0 .632.943 1.143 2.106 1.143 1.163 0 2.106-.511 2.106-1.143h-2.106z"/></g></svg>