<?xml version="1.0" encoding="utf-8"?>
<!-- Generator: Adobe Illustrator 17.0.0, SVG Export Plug-In . SVG Version: 6.00 Build 0)  -->
<!DOCTYPE svg PUBLIC "-//W3C//DTD SVG 1.1 Basic//EN" "http://www.w3.org/Graphics/SVG/1.1/DTD/svg11-basic.dtd">
<svg version="1.1" baseProfile="basic" id="Layer_1"
	 xmlns="http://www.w3.org/2000/svg" xmlns:xlink="http://www.w3.org/1999/xlink" x="0px" y="0px" width="28.838px"
	 height="42.994px" viewBox="0 0 28.838 42.994" xml:space="preserve">
<g>
	<g>
		<path fill-rule="evenodd" clip-rule="evenodd" fill="#FFFFFF" d="M25.67,23.064c-0.595,0.88-1.588,2.813-2.57,4.72
			c-0.631,1.227-1.251,2.43-1.813,3.421c-0.419-0.008-0.838-0.017-1.252-0.025c0.53-1.021,1.158-2.323,1.787-3.653
			c0.947-2.006,1.913-4.045,2.537-5.047c1.278-2.015,1.938-3.996,2.07-5.849c0.148-2.052-0.355-3.981-1.363-5.657
			c-0.87-1.415-2.081-2.67-3.536-3.679C19.986,6.225,18.2,5.43,16.321,4.989c-1.946-0.457-3.93-0.505-5.765-0.163
			C8.705,5.168,7.058,5.946,5.796,7.109c-1.577,1.447-2.494,3.474-2.51,5.98c-0.014,2.251,0.711,4.805,2.271,7.51
			c0.749,1.289,1.787,3.786,2.775,6.167c0.634,1.548,1.248,3.043,1.765,4.182c-0.512-0.008-1.018-0.024-1.523-0.036
			c-0.588-1.142-1.249-2.55-1.935-4.023c-1.101-2.331-2.26-4.774-3.008-5.956c-2.038-3.198-3.066-6.297-3.164-9.123
			C0.355,8.628,1.433,5.953,3.388,4.008c1.554-1.565,3.583-2.581,5.879-3.047c2.296-0.465,4.763-0.333,7.152,0.305
			c2.302,0.614,4.485,1.68,6.333,3.107c1.736,1.342,3.153,2.972,4.132,4.786c1.172,2.189,1.692,4.597,1.425,7.092
			C28.073,18.468,27.223,20.766,25.67,23.064z"/>
		<path fill-rule="evenodd" clip-rule="evenodd" fill="#FFFFFF" d="M17.605,32.062c-1.451,0.371-2.881,0.743-4.279,1.1
			c-1.384,0.353-2.747,0.702-4.086,1.042c-0.211-0.738-0.437-1.528-0.674-2.385c1.583,0.042,3.139,0.085,4.661,0.124
			C14.714,31.982,16.179,32.023,17.605,32.062L17.605,32.062z M13.389,40.406c0.928-0.197,1.864-0.393,2.811-0.597
			c0.952-0.205,1.923-0.414,2.9-0.618c-0.101,0.365-0.2,0.715-0.29,1.043c-0.875,0.022-1.763,0.053-2.658,0.081
			C15.241,40.342,14.321,40.376,13.389,40.406L13.389,40.406z M10.7,39.386c0.107,0.387,0.211,0.749,0.307,1.091
			c1.32-0.276,2.659-0.566,4.016-0.859c1.381-0.299,2.788-0.599,4.208-0.912c0.121-0.413,0.239-0.846,0.369-1.304
			c-1.547,0.347-3.067,0.685-4.56,1.018C13.567,38.747,12.12,39.065,10.7,39.386L10.7,39.386z M10.168,37.492
			c1.6-0.373,3.231-0.753,4.888-1.143c1.692-0.399,3.413-0.803,5.168-1.216c-0.162,0.582-0.316,1.145-0.462,1.659
			c-1.598,0.371-3.173,0.73-4.722,1.076c-1.52,0.34-3.017,0.68-4.483,1.011C10.435,38.444,10.303,37.981,10.168,37.492
			L10.168,37.492z M9.478,35.057c0.18,0.634,0.347,1.233,0.508,1.795c1.658-0.4,3.357-0.802,5.078-1.212
			c1.754-0.418,3.551-0.857,5.38-1.299c0.191-0.68,0.393-1.405,0.612-2.184c-2.04,0.512-4.039,1.005-5.981,1.492
			C13.17,34.127,11.304,34.604,9.478,35.057z"/>
	</g>
	<polygon fill-rule="evenodd" clip-rule="evenodd" fill="#FFFFFF" points="11.538,18.064 21.01,14.81 15.867,28.908 18.091,17.447 	
		"/>
	<polygon fill-rule="evenodd" clip-rule="evenodd" fill="#FFFFFF" points="15.776,20.353 9.456,17.873 12.888,28.619 11.404,19.882 
			"/>
	<path fill-rule="evenodd" clip-rule="evenodd" fill="#FFFFFF" d="M14.884,41.167h-2.106c0,0.632,0.943,1.143,2.106,1.143
		c1.163,0,2.106-0.511,2.106-1.143H14.884z"/>
</g>
</svg>
