<?xml version="1.0" encoding="utf-8"?>
<!-- Generator: Adobe Illustrator 17.0.0, SVG Export Plug-In . SVG Version: 6.00 Build 0)  -->
<!DOCTYPE svg PUBLIC "-//W3C//DTD SVG 1.1 Basic//EN" "http://www.w3.org/Graphics/SVG/1.1/DTD/svg11-basic.dtd">
<svg version="1.1" baseProfile="basic" id="Layer_1"
	 xmlns="http://www.w3.org/2000/svg" xmlns:xlink="http://www.w3.org/1999/xlink" x="0px" y="0px" width="28px" height="28px"
	 viewBox="0 0 28 28" xml:space="preserve">
<path fill-rule="evenodd" clip-rule="evenodd" fill="#FFFFFF" d="M3.594,0h20.812C26.383,0,28,1.617,28,3.594v20.812
	C28,26.383,26.383,28,24.406,28H3.594C1.617,28,0,26.383,0,24.406V3.594C0,1.617,1.617,0,3.594,0L3.594,0z M20.397,3.111
	c-0.693,0-1.261,0.567-1.261,1.261v3.017c0,0.693,0.567,1.261,1.261,1.261h3.165c0.693,0,1.26-0.567,1.26-1.261V4.371
	c0-0.693-0.567-1.261-1.26-1.261H20.397L20.397,3.111z M24.835,11.841h-2.465c0.233,0.761,0.359,1.568,0.359,2.402
	c0,4.657-3.897,8.433-8.703,8.433c-4.807,0-8.703-3.775-8.703-8.433c0-0.835,0.126-1.641,0.359-2.402H3.111v11.828
	c0,0.612,0.501,1.113,1.113,1.113h19.498c0.612,0,1.113-0.501,1.113-1.113V11.841L24.835,11.841z M14.027,8.491
	c-3.106,0-5.623,2.439-5.623,5.449c0,3.009,2.518,5.449,5.623,5.449c3.106,0,5.623-2.439,5.623-5.449
	C19.65,10.93,17.132,8.491,14.027,8.491z"/>
</svg>
