<?xml version="1.0" encoding="utf-8"?>
<!-- Generator: Adobe Illustrator 17.0.0, SVG Export Plug-In . SVG Version: 6.00 Build 0)  -->
<!DOCTYPE svg PUBLIC "-//W3C//DTD SVG 1.1 Basic//EN" "http://www.w3.org/Graphics/SVG/1.1/DTD/svg11-basic.dtd">
<svg version="1.1" baseProfile="basic" id="Layer_1"
	 xmlns="http://www.w3.org/2000/svg" xmlns:xlink="http://www.w3.org/1999/xlink" x="0px" y="0px" width="34.454px" height="28px"
	 viewBox="0 0 34.454 28" xml:space="preserve">
<path fill="#FFFFFF" d="M34.454,3.314c-1.268,0.562-2.63,0.942-4.06,1.113c1.459-0.875,2.58-2.26,3.108-3.911
	c-1.366,0.81-2.879,1.398-4.489,1.715C27.724,0.858,25.887,0,23.854,0c-3.904,0-7.069,3.165-7.069,7.068
	c0,0.554,0.063,1.094,0.183,1.611C11.093,8.385,5.885,5.57,2.399,1.294C1.79,2.338,1.442,3.552,1.442,4.847
	c0,2.452,1.248,4.616,3.145,5.884c-1.159-0.037-2.249-0.355-3.202-0.884c-0.001,0.03-0.001,0.059-0.001,0.089
	c0,3.425,2.437,6.282,5.67,6.931c-0.593,0.162-1.218,0.248-1.862,0.248c-0.455,0-0.898-0.044-1.33-0.127
	c0.9,2.808,3.51,4.852,6.603,4.909c-2.419,1.896-5.467,3.026-8.779,3.026c-0.571,0-1.133-0.033-1.686-0.099
	C3.128,26.83,6.844,28,10.836,28c13.002,0,20.112-10.771,20.112-20.112c0-0.306-0.007-0.611-0.021-0.915
	C32.308,5.977,33.506,4.732,34.454,3.314z"/>
</svg>
