<svg baseProfile="basic" xmlns="http://www.w3.org/2000/svg" width="28" height="28" viewBox="0 0 28 28"><path fill-rule="evenodd" clip-rule="evenodd" fill="#FFF" d="M3.594 0h20.812A3.604 3.604 0 0 1 28 3.594v20.812A3.604 3.604 0 0 1 24.406 28H3.594A3.604 3.604 0 0 1 0 24.406V3.594A3.604 3.604 0 0 1 3.594 0zm16.803 3.111c-.693 0-1.261.567-1.261 1.261v3.017c0 .693.567 1.261 1.261 1.261h3.165c.693 0 1.26-.567 1.26-1.261V4.371c0-.693-.567-1.261-1.26-1.261h-3.165v.001zm4.438 8.73H22.37c.233.761.359 1.568.359 2.402 0 4.657-3.897 8.433-8.703 8.433-4.807 0-8.703-3.775-8.703-8.433 0-.835.126-1.641.359-2.402H3.111v11.828c0 .612.501 1.113 1.113 1.113h19.498c.612 0 1.113-.501 1.113-1.113V11.841zm-10.808-3.35c-3.106 0-5.623 2.439-5.623 5.449 0 3.009 2.518 5.449 5.623 5.449 3.106 0 5.623-2.439 5.623-5.449s-2.518-5.449-5.623-5.449z"/></svg>