<svg baseProfile="basic" xmlns="http://www.w3.org/2000/svg" width="34.454" height="28" viewBox="0 0 34.454 28"><path fill="#FFF" d="M34.454 3.314c-1.268.562-2.63.942-4.06 1.113A7.092 7.092 0 0 0 33.502.516a14.158 14.158 0 0 1-4.489 1.715A7.06 7.06 0 0 0 23.854 0a7.069 7.069 0 0 0-7.069 7.068c0 .554.063 1.094.183 1.611C11.093 8.385 5.885 5.57 2.399 1.294a7.029 7.029 0 0 0-.957 3.553 7.067 7.067 0 0 0 3.145 5.884 7.05 7.05 0 0 1-3.202-.884l-.001.089a7.073 7.073 0 0 0 5.67 6.931 7.06 7.06 0 0 1-3.192.121 7.077 7.077 0 0 0 6.603 4.909 14.182 14.182 0 0 1-8.779 3.026c-.571 0-1.133-.033-1.686-.099A20.005 20.005 0 0 0 10.836 28c13.002 0 20.112-10.771 20.112-20.112 0-.306-.007-.611-.021-.915a14.353 14.353 0 0 0 3.527-3.659z"/></svg>